<svg id="Capa_1" enable-background="new 0 0 512.008 512.008" height="512" viewBox="0 0 512.008 512.008" width="512" xmlns="http://www.w3.org/2000/svg" xmlns:xlink="http://www.w3.org/1999/xlink"><linearGradient id="SVGID_1_" gradientUnits="userSpaceOnUse" x1="256.004" x2="256.004" y1="497.005" y2=".002"><stop offset="0" stop-color="#fd3a84"/><stop offset="1" stop-color="#ffa68d"/></linearGradient><linearGradient id="SVGID_2_" gradientUnits="userSpaceOnUse" x1="256.003" x2="256.003" y1="512.005" y2="482.005"><stop offset="0" stop-color="#ffc2cc"/><stop offset="1" stop-color="#fff2f4"/></linearGradient><g><g><g><path d="m226.003 240.005h-60c-8.284 0-15 6.716-15 15v242h90v-242c0-8.284-6.715-15-15-15zm120 60h-60c-8.284 0-15 6.716-15 15v182h90v-182c0-8.284-6.715-15-15-15zm-240-120h-60c-8.284 0-15 6.716-15 15v302h90v-302c0-8.284-6.715-15-15-15zm360 180h-60c-8.284 0-15 6.716-15 15v122h90v-122c0-8.284-6.715-15-15-15zm45.105-110.633-29.638-81.901c-2.819-7.79-11.419-11.821-19.209-9.001-7.79 2.819-11.82 11.419-9.001 19.209l16.899 46.7-448.482-222.807c-7.42-3.685-16.422-.659-20.107 6.759-3.686 7.419-.659 16.421 6.76 20.107l448.254 222.693-47.264 14.429c-7.923 2.418-12.386 10.802-9.967 18.726 2.431 7.964 10.843 12.375 18.726 9.967l83.304-25.43c8.21-2.507 12.644-11.386 9.725-19.451z" fill="url(#SVGID_1_)"/></g></g><g><g><path d="m497.003 482.005h-482c-8.284 0-15 6.716-15 15s6.716 15 15 15h482c8.284 0 15-6.716 15-15s-6.715-15-15-15z" fill="url(#SVGID_2_)"/></g></g></g></svg>