<?xml version="1.0" encoding="iso-8859-1"?>
<!-- Generator: Adobe Illustrator 19.0.0, SVG Export Plug-In . SVG Version: 6.00 Build 0)  -->
<svg version="1.1" id="Capa_1" xmlns="http://www.w3.org/2000/svg" xmlns:xlink="http://www.w3.org/1999/xlink" x="0px" y="0px"
	 viewBox="0 0 512 512" style="enable-background:new 0 0 512 512;" xml:space="preserve">
<g>
	<path style="fill:#FFD15C;" d="M312.533,296.478v-85.333c7.467-14.933,11.733-54.4,11.733-54.4V58.612l-72.533-35.2L192,59.678
		l-18.133,43.733l12.8,77.867c0,0,4.267,28.8,13.867,42.667v82.133L312.533,296.478z"/>
	<path style="fill:#FFD15C;" d="M312.533,211.145v35.2l0,0c9.6,14.933,7.467,74.667,7.467,123.733H181.333
		c4.267-50.133,7.467-104.533,18.133-123.733l0,0v-24.533c-8.533-13.867-13.867-42.667-13.867-42.667l-12.8-77.867l18.133-43.733
		l59.733-36.267l72.533,35.2v98.133C324.267,156.745,320,196.212,312.533,211.145z"/>
</g>
<path style="fill:#E8EAE9;" d="M331.733,511.945L320,309.278h-1.067c-9.6,24.533-34.133,42.667-62.933,42.667
	s-53.333-18.133-62.933-42.667H192l-11.733,202.667H331.733z"/>
<g>
	
		<ellipse transform="matrix(0.24 -0.9708 0.9708 0.24 102.0007 431.1546)" style="fill:#FFD15C;" cx="326.362" cy="150.433" rx="29.867" ry="13.867"/>
	
		<ellipse transform="matrix(0.24 0.9708 -0.9708 0.24 290.0231 -57.513)" style="fill:#FFD15C;" cx="181.743" cy="156.47" rx="29.867" ry="13.867"/>
</g>
<path style="fill:#415A6B;" d="M179.2,150.345c1.067,4.267,3.2,13.867,5.333,18.133h3.2c-1.067-4.267-2.133-13.867-2.133-19.2
	c1.067-8.533-2.133-22.4,3.2-30.933c4.267-8.533-1.067-21.333,0-25.6c1.067-5.333-4.267-13.867,24.533-25.6s92.8-29.867,97.067,28.8
	c0,0-2.133,7.467,2.133,13.867c4.267,6.4,6.4,14.933,7.467,23.467c0,7.467,0,27.733,0,36.267h4.267c2.133-3.2,2.133-22.4,8.533-38.4
	c5.333-13.867,8.533-27.733,9.6-42.667c5.333-45.867-48-96-97.067-87.467c-49.067,9.6-71.467,41.6-74.667,59.733
	c-3.2,17.067-2.133,48,0,59.733C171.733,131.145,177.067,143.945,179.2,150.345z"/>
<path style="fill:#F7B64C;" d="M248.533,262.345c-30.933,0-49.067-38.4-49.067-38.4v23.467l0,0c-6.4,10.667-9.6,29.867-12.8,53.333
	c12.8-3.2,38.4-6.4,50.133-10.667c62.933-23.467,74.667-78.933,74.667-78.933l0,0l0,0l0,0
	C312.533,211.145,288,262.345,248.533,262.345z"/>
<path style="fill:#344A5E;" d="M0,511.945h235.733l-1.067-7.467l-59.733-218.667L64,310.345
	c-19.2,5.333-33.067,20.267-37.333,39.467C18.133,391.412,0,502.345,0,511.945z"/>
<path style="fill:#415A6B;" d="M199.467,247.412L199.467,247.412l-60.8,59.733l35.2,13.867l-43.733,21.333l90.667,169.6H240
	l-39.467-211.2C196.267,282.612,196.267,264.478,199.467,247.412z"/>
<path style="fill:#344A5E;" d="M512,511.945H276.267l1.067-7.467l59.733-218.667L448,310.345
	c19.2,5.333,33.067,20.267,37.333,39.467C493.867,391.412,512,502.345,512,511.945z"/>
<path style="fill:#415A6B;" d="M312.533,247.412L312.533,247.412l60.8,60.8l-32,13.867l39.467,21.333l-89.6,168.533H272
	l39.467-211.2C315.733,282.612,315.733,264.478,312.533,247.412z"/>
<g>
</g>
<g>
</g>
<g>
</g>
<g>
</g>
<g>
</g>
<g>
</g>
<g>
</g>
<g>
</g>
<g>
</g>
<g>
</g>
<g>
</g>
<g>
</g>
<g>
</g>
<g>
</g>
<g>
</g>
</svg>
