<?xml version="1.0" encoding="iso-8859-1"?>
<!-- Generator: Adobe Illustrator 19.0.0, SVG Export Plug-In . SVG Version: 6.00 Build 0)  -->
<svg version="1.1" id="Capa_1"
	xmlns="http://www.w3.org/2000/svg"
	xmlns:xlink="http://www.w3.org/1999/xlink" x="0px" y="0px" viewBox="0 0 508.147 508.147" style="enable-background:new 0 0 508.147 508.147;" xml:space="preserve">
	<g>
		<ellipse style="fill:#344A5E;" cx="163.023" cy="383.347" rx="14.933" ry="39.467"/>
		<path style="fill:#344A5E;" d="M333.689,508.147l-55.467-168.533c0,0,5.333-17.067,20.267-29.867c13.867-12.8,35.2-16,35.2-16
		s-8.533-6.4-24.533-12.8c-16-6.4-23.467-5.333-23.467-5.333c-38.4,32-75.733,144-77.867,167.467
		c-1.067,18.133,5.333,53.333,7.467,65.066H333.689z"/>
	</g>
	<path style="fill:#FFD15C;" d="M222.756,444.147l18.133-3.2c0,0,17.067,4.267,22.4-12.8c5.333-17.066-3.2-23.467-3.2-23.467
	s-20.267,6.4-28.8,7.467c-8.533,1.066-19.2,14.934-19.2,14.934L222.756,444.147"/>
	<path style="fill:#E8EAE9;" d="M228.089,408.946l5.333,1.066c0,0,2.133,26.667,4.267,32c2.133,5.333,2.133,5.333,2.133,5.333
	l-24.533,6.4L228.089,408.946z"/>
	<path style="fill:#F7B64C;" d="M236.623,162.546l-9.6,6.4c0,0-11.733,17.067-13.867,23.467c-3.2,6.4-1.067,5.333-4.267,10.667
	c-3.2,5.333-9.6,38.4-8.533,46.933c1.067,8.533,10.667,13.867,10.667,13.867l3.2,38.4l52.267-12.8c0,0,1.067-29.867,4.267-36.267
	c3.2-7.467,19.2-19.2,21.333-27.733c2.133-9.6-4.267-42.667-11.733-53.333C272.889,161.48,236.623,162.546,236.623,162.546z"/>
	<polygon style="fill:#CED6E0;" points="225.956,284.146 232.356,285.213 234.489,285.213 270.756,287.347 213.156,403.613 
	198.223,299.08 "/>
	<g>
		<polygon style="fill:#F3705A;" points="244.089,295.88 237.689,301.213 227.023,301.213 221.689,294.813 232.356,285.213 
		234.489,285.213 	"/>
		<polygon style="fill:#F3705A;" points="227.023,301.213 218.489,353.48 229.156,365.213 239.823,354.546 237.689,301.213 	"/>
	</g>
	<path style="fill:#415A6B;" d="M228.089,170.013c0,0,11.733,2.133,23.467,5.333c11.733,3.2,24.533,16,23.467,23.467
	c-1.067,7.467-4.267,12.8-4.267,19.2c1.067,6.4-5.333,18.133-5.333,18.133l3.2,3.2c0,0,13.867-9.6,21.333-7.467
	c7.467,1.067,14.933-37.333,7.467-56.533c-7.467-19.2-41.6-33.067-49.067-33.067C239.823,141.213,217.423,145.48,228.089,170.013z" />
	<path style="fill:#F7B64C;" d="M286.756,244.68c-6.4,5.333-14.933,6.4-18.133,2.133c-3.2-3.2-1.067-10.667,5.333-16
	c6.4-5.333,14.933-6.4,18.133-2.133C295.289,232.946,293.156,239.347,286.756,244.68z"/>
	<path style="fill:#E89E3D;" d="M212.089,264.947l1.067,17.067c30.933-8.533,46.933-27.733,46.933-27.733
	C246.223,267.08,212.089,264.947,212.089,264.947z"/>
	<path style="fill:#F3F3F3;" d="M232.356,285.213c-3.2,3.2-19.2,19.2-19.2,26.667l-8.533-8.533l4.267-14.933c0,0,0-21.333,3.2-22.4
	C212.089,264.947,213.156,272.413,232.356,285.213z"/>
	<path style="fill:#344A5E;" d="M153.423,508.147h73.6l-8.533-108.8l-9.6-105.6c0,0,1.067-17.067,2.133-25.6
	c0,0-4.267,7.467-10.667,10.667c-6.4,3.2-42.667,17.067-49.067,22.4c0,0,4.267,45.867,7.467,61.867
	C160.889,376.946,161.956,463.347,153.423,508.147z"/>
	<path style="fill:#415A6B;" d="M207.823,442.013c0,0-3.2-33.066-3.2-53.333c0-20.267-3.2-108.8-3.2-108.8l9.6-12.8
	C211.023,268.146,223.823,363.08,207.823,442.013z"/>
	<path style="fill:#FFD15C;" d="M212.089,308.68c0,0-1.067-1.067,0-3.2c1.067-2.133,6.4-6.4,7.467-12.8
	c1.067-5.333,4.267-12.8,6.4-13.867c2.133-2.133,9.6-9.6,10.667-12.8c1.067-3.2,1.067-4.267-2.133-6.4
	c-3.2-2.133-6.4,1.067-7.467,2.133c-1.067,1.067-7.467,7.467-9.6,9.6c-2.133,2.133-4.267,3.2-9.6,3.2s-5.333-1.067-6.4-3.2
	c-1.067-2.133,0-12.8,1.067-17.067c0,0,0-9.6,0-11.733c0-2.133-2.133-4.267-3.2-3.2c-1.067,1.067-1.067,3.2-2.133,6.4
	c-1.067,3.2-4.267,12.8-7.467,17.067c-2.133,4.267-4.267,5.333-5.333,6.4c0,0-4.267,1.067-3.2,8.533
	c1.067,7.467,3.2,26.667,3.2,30.933s5.333,19.2,5.333,19.2L212.089,308.68z"/>
	<path style="fill:#F3F3F3;" d="M270.756,260.68c0,0-5.333,8.533-10.667,11.733c-5.333,3.2-25.6,12.8-25.6,12.8
	s10.667,13.867,12.8,21.333l28.8-25.6C276.089,279.88,271.823,263.88,270.756,260.68z"/>
	<path style="fill:#415A6B;" d="M270.756,260.68c0,0,2.133,6.4-3.2,14.933c-5.333,7.467-25.6,26.667-32,41.6
	c-6.4,14.933-26.667,76.8-27.733,125.867c0,0,29.867-82.133,44.8-106.667c13.867-24.533,37.333-55.467,38.4-57.6
	c1.067-2.133-5.333-6.4-9.6-8.533C276.089,267.08,270.756,260.68,270.756,260.68z"/>
	<path style="fill:#E8EAE9;" d="M215.289,309.746l-2.133-1.067c0,0-13.867,2.133-22.4,10.667c-8.534,8.533-7.467,11.733-7.467,11.733
	l2.133,9.6l26.667-12.8C212.089,326.813,215.289,309.746,215.289,309.746z"/>
	<g>
		<path style="fill:#415A6B;" d="M339.023,310.813c-1.067,16-4.267,23.467-5.333,29.867c-1.067,6.4-6.4,20.267-6.4,23.467
		c-1.067,2.133-13.867,43.733-20.267,59.733c-1.067,2.133-2.133,4.267-3.2,5.333c-5.333,7.467-12.8,21.333-27.733,18.133
		c-14.933-4.267-29.867-20.267-39.467-36.267c-2.133-4.267-8.533-10.667-16-18.133c-19.2-19.2-45.867-42.667-45.867-42.667
		s7.467-14.933,17.067-25.6s24.533-14.933,24.533-14.933s20.267,20.267,24.533,24.533c1.067,1.067,2.133,2.133,3.2,3.2
		c4.267,4.267,7.467,11.733,10.667,14.933c4.267,4.267,11.733,5.333,14.933,8.533c3.2,3.2,6.4,5.333,6.4,5.333
		s-2.133-17.067,3.2-25.6c0,0,5.333-17.067,20.267-29.867c13.867-12.8,35.2-16,35.2-16S340.089,294.813,339.023,310.813z"/>
		<path style="fill:#415A6B;" d="M233.423,461.213c0,0-3.2,1.066-9.6,1.066c-16,2.133-49.067,5.333-60.8,5.333
		c-2.133,0-3.2,0-5.333,0c-13.867,0-33.067,0-36.267-3.2c-4.267-3.2-9.6-21.333-10.667-27.733c-1.067-6.4,2.133-11.733,4.267-19.2
		c2.133-7.467,8.533-30.934,11.733-38.4c3.2-7.467,2.133-8.533,2.133-13.867s1.067-5.333,2.133-9.6s2.133-7.467,2.133-12.8
		c1.067-5.333,4.267-11.733,6.4-16c2.133-4.267,2.133-9.6,4.267-17.067c2.133-7.467,7.467-9.6,7.467-9.6s4.267,45.867,7.467,61.867
		c0,1.067,0,3.2,1.067,4.267l1.067,43.733l0,0c0,0,3.2,0,4.267,0c2.133,0,24.533-1.066,32-3.2
		c4.267-1.066,14.933-1.066,23.467-1.066c6.4,0,12.8,0,12.8,0s-1.067,10.667-4.267,20.267
		C224.889,436.68,233.423,460.147,233.423,461.213z"/>
	</g>
	<g>
		<path style="fill:#F3705A;" d="M464.889,50.546L464.889,50.546L464.889,50.546c-14.933,9.6-27.733,30.933-36.267,46.933
		c-8.533,17.067-11.733,34.133-12.8,42.667c0,1.067,0,2.133-1.067,3.2c-1.067,6.4-4.267,6.4-4.267,6.4l0,0l-6.4-3.2v-1.067
		c0,0-3.2-10.667,0-27.733c2.133-11.733,8.533-24.533,12.8-33.067c-24.533,22.4-43.733,44.8-58.667,67.2
		c-7.467,12.8-12.8,25.6-17.067,34.133c-2.133,5.333-4.267,9.6-5.333,10.667c-3.2,4.267-9.6,4.267-11.733,4.267l0,0h-1.067
		l2.133-14.933c8.533-30.933,23.467-51.2,37.333-69.333c11.733-14.933,35.2-36.267,44.8-44.8
		c-5.333,1.067-14.933,4.267-21.333,5.333c-5.333,1.067-13.867,2.133-20.267,2.133c-12.8,0-13.867-3.2-13.867-4.267
		c-1.067-3.2-5.333-7.467-7.467-9.6l-2.133-2.133h3.2c29.867,0,55.467-7.467,73.6-12.8c2.133-1.067,5.333-1.067,7.467-2.133
		c18.133-5.333,33.067-11.733,33.067-11.733l0,0l0,0c3.2,0,6.4,2.133,7.467,4.267C467.023,44.146,464.889,50.546,464.889,50.546z"/>
		<path style="fill:#F3705A;" d="M42.489,50.546L42.489,50.546L42.489,50.546c14.933,9.6,27.733,30.933,36.267,46.933
		c8.533,17.067,11.733,34.133,12.8,42.667c0,1.067,0,2.133,1.067,3.2c1.067,6.4,4.267,6.4,4.267,6.4l0,0l6.4-3.2v-1.067
		c0,0,3.2-10.667,0-27.733c-2.133-11.733-8.533-24.533-12.8-33.067c24.533,22.4,43.733,44.8,58.667,67.2
		c7.467,12.8,12.8,25.6,17.067,34.133c2.133,5.333,4.267,9.6,5.333,10.667c3.2,4.267,9.6,4.267,11.733,4.267c0,0,0,0,1.067,0h1.067
		l-2.133-14.933c-8.533-30.933-23.467-51.2-37.333-69.333c-11.733-14.933-35.2-36.267-44.8-44.8
		c5.333,1.067,14.933,4.267,21.333,5.333c5.333,1.067,13.867,2.133,20.267,2.133c12.8,0,13.867-3.2,13.867-4.267
		c1.067-3.2,5.333-7.467,7.467-9.6l2.133-2.133h-3.2c-29.867,0-55.467-7.467-73.6-12.8c-2.133-1.067-5.333-1.067-7.467-2.133
		C63.823,43.079,48.89,36.679,48.89,36.679l0,0l0,0c-3.2,0-6.4,2.133-7.467,4.267C40.356,44.146,42.489,50.546,42.489,50.546z"/>
	</g>
	<g>
		<path style="fill:#55C0EB;" d="M288.889,45.213c-11.733,10.667-19.2,20.267-22.4,27.733c-2.133,4.267-2.133,7.467-2.133,9.6
		c0,2.133,0,3.2-1.067,5.333c-1.067,2.133-3.2,3.2-6.4,3.2h-1.067c-4.267,0-8.533-3.2-9.6-7.467c-4.267-9.6,8.533-29.867,9.6-29.867
		c4.267-7.467,21.333-22.4,25.6-26.667c4.267-3.2,5.333-5.333,4.267-9.6c-1.067-2.133-9.6-2.133-12.8-2.133h-2.133
		c-4.267,0-18.133,7.467-21.333,12.8c-2.133,4.267-2.133,7.467-1.067,10.667c0,1.067,0,2.133,0,2.133c0,4.267-2.133,5.333-3.2,6.4
		c-2.133,1.067-4.267,1.067-5.333-1.067c0,0-2.133-1.067-3.2-1.067c-3.2,0-6.4-3.2-6.4-6.4c0-1.067,0-2.133,0-4.267
		c0-3.2,0-12.8,5.333-18.133c4.267-5.333,19.2-13.867,34.133-16c11.733-1.067,26.667-1.067,34.133,12.8
		C310.223,24.946,299.556,35.613,288.889,45.213z"/>
		<path style="fill:#55C0EB;" d="M268.623,118.813c-1.067,1.067-3.2,4.267-6.4,4.267c-1.067,0-2.133,0-3.2-1.067
		c-1.067-1.067-1.067-1.067-2.133-1.067c-1.067,0-1.067,0-2.133-1.067c-1.067,0-3.2,0-4.267-2.133
		c-2.133-2.133-3.2-4.267-2.133-7.467c0-1.067,1.067-3.2,2.133-4.267l1.067-1.067c3.2-1.067,4.267-2.133,5.333-3.2
		c2.133-3.2,6.4-1.067,7.467-1.067c3.2,1.067,5.333,4.267,5.333,6.4c0,1.067,0,1.067,0,2.133l0,0
		C270.756,113.48,270.756,115.613,268.623,118.813z"/>
	</g>
</svg>
