<?xml version="1.0" encoding="iso-8859-1"?>
<!-- Generator: Adobe Illustrator 19.0.0, SVG Export Plug-In . SVG Version: 6.00 Build 0)  -->
<svg version="1.1" id="Capa_1" xmlns="http://www.w3.org/2000/svg" xmlns:xlink="http://www.w3.org/1999/xlink" x="0px" y="0px"
	 viewBox="0 0 512.313 512.313" style="enable-background:new 0 0 512.313 512.313;" xml:space="preserve">
<g>
	<ellipse style="fill:#FFD15C;" cx="199.207" cy="259.513" rx="6.4" ry="18.133"/>
	<polygon style="fill:#FFD15C;" points="289.874,282.979 265.34,335.246 193.874,323.513 202.407,266.979 	"/>
</g>
<path style="fill:#415A6B;" d="M144.807,512.313l-40.533-134.4l-12.8-1.067c0,0-4.267,1.067-6.4,19.2
	c-2.133,18.133-1.067,28.8-1.067,35.2c0,6.4-1.067,32-2.133,45.867c-1.067,11.733-1.067,25.6,0,34.133h62.933V512.313z"/>
<path style="fill:#344A5E;" d="M269.607,186.979c-22.4-7.467-46.933,1.067-59.733,20.267c0,0,0,1.067-1.067,1.067
	c-12.8,21.333-12.8,50.133-11.733,58.667s8.533,25.6,22.4,28.8c13.867,3.2,50.133,17.067,59.733,10.667
	c9.6-6.4,34.133-52.267,30.933-76.8C308.007,211.513,292.007,193.379,269.607,186.979z"/>
<path style="fill:#FFD15C;" d="M278.14,284.046c0,0,0,1.067-3.2,1.067c-2.133,0-6.4,0-6.4,0s-14.933-8.533-19.2,2.133l6.4,4.267
	c0,0,3.2,4.267,7.467,6.4c4.267,2.133,17.067,3.2,22.4,3.2s16-3.2,19.2-4.267c3.2-1.067,9.6,0,12.8,1.067
	c3.2,1.067,4.267,1.067,4.267,1.067l20.267-28.8c0,0-12.8-8.533-14.933-9.6c-2.133-1.067-7.467-9.6-10.667-11.733
	c-2.133-2.133-13.867-8.533-14.933-9.6c-1.067-1.067-6.4-6.4-8.533-7.467c-2.133-1.067-11.733-3.2-16-3.2s-9.6,4.267-9.6,4.267
	s-7.467-1.067-12.8,0c-5.333,1.067-5.333,6.4-3.2,7.467c0,0-7.467-3.2-10.667,2.133c-2.133,4.267-1.067,7.467,1.067,7.467
	c2.133,1.067,6.4,1.067,9.6,2.133c3.2,1.067,14.933,6.4,16,7.467c2.133,1.067,5.333,3.2,5.333,3.2s-1.067,2.133-3.2,1.067
	c-2.133,0-16-3.2-20.267-5.333s-8.533-3.2-10.667-3.2c-2.133,1.067-4.267,4.267-4.267,5.333c0,1.067,2.133,4.267,8.533,6.4
	c6.4,2.133,9.6,6.4,14.933,7.467c5.333,1.067,12.8,4.267,14.933,5.333C274.94,280.846,278.14,284.046,278.14,284.046z"/>
<path style="fill:#F7B64C;" d="M267.474,229.646c0,0,2.133,0,4.267,0c1.067,0,1.067,0,2.133,0c1.067,0,1.067,0,2.133,0
	c1.067,0,2.133,0,2.133,1.067c1.067,0,2.133,1.067,2.133,1.067c1.067,0,1.067,1.067,2.133,1.067c1.067,0,1.067,1.067,2.133,1.067
	s1.067,1.067,2.133,1.067c1.067,0,1.067,1.067,2.133,1.067l0,0l0,0h1.067h1.067c1.067,0,1.067,0,1.067,0s0,0-1.067,0h-1.067h-1.067
	l0,0l0,0c-1.067,0-1.067-1.067-2.133-1.067c-1.067,0-1.067-1.067-2.133-1.067s-1.067-1.067-2.133-1.067
	c-1.067,0-1.067-1.067-2.133-1.067c-1.067,0-1.067-1.067-2.133-1.067s-2.133,0-2.133-1.067c-1.067,0-1.067,0-2.133,0
	c-1.067,0-1.067,0-2.133,0C269.607,229.646,267.474,229.646,267.474,229.646z"/>
<path style="fill:#415A6B;" d="M309.074,321.379l9.6-6.4c0,0,9.6-5.333,14.933,5.333c5.333,9.6,5.333,12.8,8.533,14.933
	c3.2,1.067,5.333,2.133,5.333,3.2c0,1.067,27.733,2.133,27.733,2.133s0-6.4-3.2-7.467c-3.2-1.067,1.067,5.333-5.333,2.133
	c-6.4-3.2-8.533-6.4-11.733-9.6c-3.2-3.2-41.6-26.667-41.6-26.667s21.333-38.4,27.733-45.867c6.4-7.467,6.4-7.467,6.4-7.467
	s35.2,29.867,38.4,34.133c4.267,4.267,21.333,14.933,25.6,17.067c4.267,2.133,7.467,5.333,7.467,5.333s13.867,7.467,17.067,12.8
	c3.2,5.333,24.533,22.4,27.733,26.667c3.2,4.267,1.067,16-3.2,21.333c-3.2,5.333-27.733,25.6-36.267,29.867
	c-8.533,4.267-68.267,28.8-68.267,28.8L309.074,321.379z"/>
<path style="fill:#344A5E;" d="M138.407,512.313h224c-2.133-5.333-3.2-9.6-5.333-12.8c-5.333-14.933-9.6-60.8-8.533-68.267
	c2.133-7.467,6.4-9.6,6.4-9.6s-21.333-44.8-24.533-57.6c-3.2-12.8-13.867-48-13.867-48s-8.533-2.133-14.933,1.067
	c-7.467,3.2-11.733,7.467-19.2,11.733c-8.533,4.267-10.667,2.133-10.667,2.133c-22.4-28.8-58.667-13.867-59.733-13.867
	c-1.067,0-52.267,22.4-52.267,22.4s-34.133,20.267-48,24.533c-13.867,5.333-21.333,13.867-21.333,13.867
	c-10.667,41.6,8.533,78.933,22.4,96C120.274,481.379,129.874,497.379,138.407,512.313z"/>
<path style="fill:#415A6B;" d="M161.874,338.446c0,0,16-3.2,25.6-7.467c9.6-4.267,24.533-10.667,41.6-10.667
	c14.933,0,27.733-1.067,37.333,5.333c2.133,2.133,4.267,3.2,7.467,4.267l2.133,1.067c0-2.133-2.133-7.467-5.333-12.8
	c-7.467-9.6-24.533-18.133-48-17.067c-23.467,1.067-45.867,16-45.867,16S166.14,332.046,161.874,338.446z"/>
<g>
	<path style="fill:#F3705A;" d="M466.94,52.579L466.94,52.579L466.94,52.579c-14.933,9.6-27.733,30.933-36.267,46.933
		c-8.533,17.067-11.733,34.133-12.8,42.667c0,1.067,0,2.133-1.067,3.2c-1.067,6.4-4.267,6.4-4.267,6.4l0,0l-6.4-3.2v-1.067
		c0,0-3.2-10.667,0-27.733c2.133-11.733,8.533-24.533,12.8-33.067c-24.533,22.4-43.733,44.8-58.667,67.2
		c-7.467,12.8-12.8,25.6-17.067,34.133c-2.133,5.333-4.267,9.6-5.333,10.667c-3.2,4.267-9.6,4.267-11.733,4.267c0,0,0,0-1.067,0
		h-1.067l2.133-14.933c8.533-30.933,23.467-51.2,37.333-69.333c11.733-14.933,35.2-36.267,44.8-44.8
		c-5.333,1.067-14.933,4.267-21.333,5.333c-5.333,1.067-13.867,2.133-20.267,2.133c-12.8,0-13.867-3.2-13.867-4.267
		c-1.067-3.2-5.333-7.467-7.467-9.6l-2.133-2.133h3.2c29.867,0,55.467-7.467,73.6-12.8c2.133-1.067,5.333-1.067,7.467-2.133
		c18.133-5.333,33.067-11.733,33.067-11.733l0,0l0,0c3.2,0,6.4,2.133,7.467,4.267C469.074,46.179,466.94,51.513,466.94,52.579z"/>
	<path style="fill:#F3705A;" d="M44.54,52.579L44.54,52.579L44.54,52.579c14.933,9.6,27.733,30.933,36.267,46.933
		c8.533,17.067,11.733,34.133,12.8,42.667c0,1.067,0,2.133,1.067,3.2c1.067,6.4,4.267,6.4,4.267,6.4l0,0l6.4-3.2v-1.067
		c0,0,3.2-10.667,0-27.733c-2.133-11.733-8.533-24.533-12.8-33.067c24.533,22.4,43.733,44.8,58.667,67.2
		c7.467,12.8,12.8,25.6,17.067,34.133c2.133,5.333,4.267,9.6,5.333,10.667c3.2,4.267,9.6,4.267,11.733,4.267c0,0,0,0,1.067,0h1.067
		l-2.133-14.933c-8.533-30.933-23.467-51.2-37.333-69.333c-9.6-16-33.067-37.333-42.667-45.867
		c5.333,1.067,14.933,4.267,21.333,5.333c5.333,1.067,13.867,2.133,20.267,2.133c12.8,0,13.867-3.2,13.867-4.267
		c1.067-3.2,5.333-7.467,7.467-9.6l2.133-2.133h-3.2c-29.867,0-55.467-7.467-73.6-12.8c-2.133-1.067-4.267-2.133-6.4-2.133
		c-19.2-5.333-33.067-11.733-33.067-11.733l0,0l0,0c-3.2,0-6.4,2.133-7.467,4.267C42.407,46.179,44.54,51.513,44.54,52.579z"/>
</g>
<g>
	<path style="fill:#66C6B9;" d="M290.94,46.179c-11.733,10.667-19.2,20.267-22.4,27.733c-2.133,4.267-2.133,7.467-2.133,9.6
		c0,2.133,0,3.2-1.067,5.333s-3.2,3.2-6.4,3.2h-1.067c-4.267,0-8.533-3.2-9.6-7.467c-3.2-9.6,9.6-29.867,10.667-30.933
		c4.267-7.467,21.333-22.4,25.6-26.667c3.2-2.133,4.267-5.333,3.2-8.533c-1.067-2.133-9.6-2.133-12.8-2.133h-2.133
		c-4.267,0-18.133,7.467-21.333,12.8c-2.133,4.267-2.133,7.467-1.067,10.667c0,1.067,0,2.133,0,2.133c0,4.267-2.133,5.333-3.2,6.4
		c-2.133,1.067-4.267,1.067-5.333-1.067c0,0-2.133-1.067-3.2-1.067c-3.2,0-6.4-3.2-6.4-6.4c0-1.067,0-2.133,0-4.267
		c0-3.2,0-12.8,5.333-18.133c4.267-6.4,18.133-14.933,33.067-17.067c11.733-1.067,27.733,0,34.133,12.8
		C312.274,26.979,301.607,37.646,290.94,46.179z"/>
	<path style="fill:#66C6B9;" d="M270.674,119.779c-1.067,1.067-3.2,4.267-6.4,4.267c-1.067,0-2.133,0-3.2-1.067
		c-1.067-1.067-1.067-1.067-2.133-1.067c-1.067,0-1.067,0-2.133-1.067c-1.067,0-3.2,0-4.267-2.133
		c-2.133-2.133-3.2-4.267-2.133-7.467c0-1.067,1.067-3.2,2.133-4.267l1.067-1.067c3.2-1.067,4.267-2.133,5.333-3.2
		c2.133-3.2,6.4-1.067,7.467-1.067c3.2,1.067,5.333,4.267,5.333,6.4c0,1.067,0,1.067,0,2.133l0,0
		C272.807,115.513,272.807,117.646,270.674,119.779z"/>
</g>
<g>
</g>
<g>
</g>
<g>
</g>
<g>
</g>
<g>
</g>
<g>
</g>
<g>
</g>
<g>
</g>
<g>
</g>
<g>
</g>
<g>
</g>
<g>
</g>
<g>
</g>
<g>
</g>
<g>
</g>
</svg>
