<svg id="Capa_1" enable-background="new 0 0 512 512" height="512" viewBox="0 0 512 512" width="512" xmlns="http://www.w3.org/2000/svg"><g><path d="m256 0c-140.7 0-256 115.3-256 256s115.3 256 256 256 256-115.3 256-256-115.3-256-256-256z" fill="#f3f5f9"/><path d="m512 256c0 140.7-115.3 256-256 256v-512c140.7 0 256 115.3 256 256z" fill="#e1e6f0"/><circle cx="256" cy="256" fill="#ff7f40" r="226"/><path d="m482 256c0 124.2-101.8 226-226 226v-452c124.2 0 226 101.8 226 226z" fill="#f25a3c"/><path d="m319.633 256 53.042-53.042c5.856-5.856 5.859-15.352 0-21.211l-42.437-42.422c-5.859-5.859-15.352-5.859-21.211 0l-53.027 53.042-53.042-53.042c-5.859-5.859-15.352-5.859-21.211 0l-42.422 42.422c-5.859 5.859-5.859 15.352 0 21.211l53.042 53.042-53.042 53.027c-5.859 5.859-5.859 15.352 0 21.211l42.422 42.437c5.856 5.856 15.35 5.861 21.211 0l53.042-53.042 53.027 53.042c5.856 5.856 15.35 5.861 21.211 0l42.437-42.437c5.856-5.856 5.859-15.352 0-21.211z" fill="#f3f5f9"/><path d="m330.238 372.675 42.437-42.437c5.856-5.856 5.859-15.352 0-21.211l-53.042-53.027 53.042-53.042c5.856-5.856 5.859-15.352 0-21.211l-42.437-42.422c-5.859-5.859-15.352-5.859-21.211 0l-53.027 53.042v127.266l53.027 53.042c5.856 5.856 15.35 5.861 21.211 0z" fill="#e1e6f0"/></g></svg>